{
    "asset" : {
        "generator" : "Khronos glTF Blender I/O v1.5.17",
        "version" : "2.0"
    },
    "extensionsUsed" : [
        "KHR_materials_unlit"
    ],
    "scene" : 0,
    "scenes" : [
        {
            "name" : "Scene",
            "nodes" : [
                0
            ]
        }
    ],
    "nodes" : [
        {
            "mesh" : 0,
            "name" : "Circle"
        }
    ],
    "materials" : [
        {
            "doubleSided" : true,
            "name" : "Material.002",
            "pbrMetallicRoughness" : {}
        },
        {
            "doubleSided" : true,
            "extensions" : {
                "KHR_materials_unlit" : {}
            },
            "name" : "Material.001",
            "pbrMetallicRoughness" : {
                "metallicFactor" : 0,
                "roughnessFactor" : 0.9
            }
        }
    ],
    "meshes" : [
        {
            "name" : "Circle",
            "primitives" : [
                {
                    "attributes" : {
                        "POSITION" : 0,
                        "NORMAL" : 1,
                        "TEXCOORD_0" : 2
                    },
                    "indices" : 3,
                    "material" : 0
                },
                {
                    "attributes" : {
                        "POSITION" : 4,
                        "NORMAL" : 5,
                        "TEXCOORD_0" : 6
                    },
                    "indices" : 7,
                    "material" : 1
                }
            ]
        }
    ],
    "accessors" : [
        {
            "bufferView" : 0,
            "componentType" : 5126,
            "count" : 574,
            "max" : [
                1.3109296560287476,
                0.6874878406524658,
                1.310929775238037
            ],
            "min" : [
                -1.3109296560287476,
                0,
                -1.310929536819458
            ],
            "type" : "VEC3"
        },
        {
            "bufferView" : 1,
            "componentType" : 5126,
            "count" : 574,
            "type" : "VEC3"
        },
        {
            "bufferView" : 2,
            "componentType" : 5126,
            "count" : 574,
            "type" : "VEC2"
        },
        {
            "bufferView" : 3,
            "componentType" : 5123,
            "count" : 960,
            "type" : "SCALAR"
        },
        {
            "bufferView" : 4,
            "componentType" : 5126,
            "count" : 800,
            "max" : [
                0.7563694715499878,
                0.45832520723342896,
                0.7563693523406982
            ],
            "min" : [
                -0.7563694715499878,
                0.22916260361671448,
                -0.7563695311546326
            ],
            "type" : "VEC3"
        },
        {
            "bufferView" : 5,
            "componentType" : 5126,
            "count" : 800,
            "type" : "VEC3"
        },
        {
            "bufferView" : 6,
            "componentType" : 5126,
            "count" : 800,
            "type" : "VEC2"
        },
        {
            "bufferView" : 7,
            "componentType" : 5123,
            "count" : 1326,
            "type" : "SCALAR"
        }
    ],
    "bufferViews" : [
        {
            "buffer" : 0,
            "byteLength" : 6888,
            "byteOffset" : 0
        },
        {
            "buffer" : 0,
            "byteLength" : 6888,
            "byteOffset" : 6888
        },
        {
            "buffer" : 0,
            "byteLength" : 4592,
            "byteOffset" : 13776
        },
        {
            "buffer" : 0,
            "byteLength" : 1920,
            "byteOffset" : 18368
        },
        {
            "buffer" : 0,
            "byteLength" : 9600,
            "byteOffset" : 20288
        },
        {
            "buffer" : 0,
            "byteLength" : 9600,
            "byteOffset" : 29888
        },
        {
            "buffer" : 0,
            "byteLength" : 6400,
            "byteOffset" : 39488
        },
        {
            "buffer" : 0,
            "byteLength" : 2652,
            "byteOffset" : 45888
        }
    ],
    "buffers" : [
        {
            "byteLength" : 48540,
            "uri" : "data:application/octet-stream;base64,"
        }
    ]
}
