<svg width="19" height="20" viewBox="0 0 19 20" fill="none" xmlns="http://www.w3.org/2000/svg">
<path d="M9.64924 0C10.3832 0.008 11.1142 0.093 11.8302 0.253C11.9828 0.28705 12.1209 0.367903 12.2252 0.484261C12.3296 0.600618 12.3949 0.746668 12.4122 0.902L12.5822 2.429C12.6062 2.64441 12.6804 2.85119 12.7989 3.03268C12.9174 3.21416 13.0768 3.36528 13.2644 3.47386C13.452 3.58244 13.6625 3.64545 13.8789 3.6578C14.0953 3.67016 14.3115 3.63152 14.5102 3.545L15.9102 2.93C16.0525 2.86735 16.2107 2.85044 16.363 2.88161C16.5152 2.91278 16.6541 2.99049 16.7602 3.104C17.7722 4.18511 18.5257 5.48162 18.9642 6.896C19.0102 7.04464 19.0088 7.20389 18.9603 7.35171C18.9117 7.49953 18.8184 7.62858 18.6932 7.721L17.4512 8.637C17.2765 8.76525 17.1343 8.93287 17.0364 9.12628C16.9385 9.3197 16.8875 9.53346 16.8876 9.75025C16.8877 9.96704 16.9389 10.1808 17.037 10.3741C17.1351 10.5674 17.2773 10.7349 17.4522 10.863L18.6952 11.778C18.8206 11.8705 18.9141 11.9997 18.9626 12.1477C19.0112 12.2958 19.0125 12.4552 18.9662 12.604C18.5279 14.0182 17.7747 15.3147 16.7632 16.396C16.6573 16.5095 16.5187 16.5872 16.3666 16.6186C16.2145 16.6499 16.0565 16.6333 15.9142 16.571L14.5082 15.954C14.3098 15.8668 14.0936 15.8276 13.8771 15.8395C13.6607 15.8515 13.4501 15.9142 13.2625 16.0227C13.0748 16.1312 12.9153 16.2824 12.797 16.464C12.6786 16.6456 12.6047 16.8525 12.5812 17.068L12.4122 18.594C12.3952 18.7476 12.3311 18.8923 12.2287 19.0081C12.1263 19.1239 11.9906 19.2053 11.8402 19.241C10.3921 19.5855 8.88337 19.5855 7.43524 19.241C7.28484 19.2053 7.14917 19.1239 7.04678 19.0081C6.94438 18.8923 6.88028 18.7476 6.86324 18.594L6.69324 17.07C6.66864 16.8554 6.5941 16.6496 6.4756 16.4691C6.35709 16.2885 6.19792 16.1383 6.01085 16.0303C5.82378 15.9224 5.61403 15.8598 5.39841 15.8476C5.18279 15.8354 4.9673 15.8739 4.76924 15.96L3.36224 16.576C3.22002 16.6383 3.06197 16.6549 2.9099 16.6236C2.75783 16.5922 2.61923 16.5145 2.51324 16.401C1.50131 15.3185 0.748084 14.0206 0.310242 12.605C0.264033 12.4562 0.265299 12.2968 0.313863 12.1487C0.362427 12.0007 0.45588 11.8715 0.581242 11.779L1.82524 10.863C2.00009 10.7348 2.14228 10.5673 2.24029 10.3739C2.3383 10.1805 2.38938 9.96679 2.38938 9.75C2.38938 9.53321 2.3383 9.31947 2.24029 9.1261C2.14228 8.93273 2.00009 8.76517 1.82524 8.637L0.582242 7.723C0.456703 7.63065 0.363051 7.50148 0.314305 7.35345C0.265559 7.20542 0.264139 7.04588 0.310242 6.897C0.749059 5.48253 1.50297 4.18601 2.51524 3.105C2.62135 2.9917 2.76 2.91412 2.91207 2.88296C3.06413 2.85179 3.22212 2.86858 3.36424 2.931L4.76424 3.546C4.96326 3.63227 5.17974 3.67066 5.39629 3.65809C5.61284 3.64551 5.82342 3.58232 6.01111 3.4736C6.19881 3.36487 6.35839 3.21363 6.47703 3.03204C6.59567 2.85045 6.67007 2.64356 6.69424 2.428L6.86424 0.902C6.8814 0.746355 6.94685 0.599984 7.0514 0.483414C7.15596 0.366845 7.29437 0.285924 7.44724 0.252C8.16524 0.0930001 8.89724 0.009 9.64924 0ZM9.64924 1.5C9.1953 1.50528 8.74237 1.54438 8.29424 1.617L8.18524 2.594C8.13532 3.04356 7.98042 3.4751 7.73305 3.85379C7.48568 4.23248 7.15276 4.54772 6.76115 4.77409C6.36954 5.00045 5.9302 5.1316 5.47859 5.15694C5.02697 5.18229 4.57572 5.10112 4.16124 4.92L3.26324 4.526C2.69123 5.22012 2.23595 6.00268 1.91524 6.843L2.71324 7.43C3.07746 7.69767 3.37358 8.04728 3.57769 8.45056C3.78179 8.85385 3.88814 9.29951 3.88814 9.7515C3.88814 10.2035 3.78179 10.6491 3.57769 11.0524C3.37358 11.4557 3.07746 11.8053 2.71324 12.073L1.91524 12.661C2.23524 13.503 2.69024 14.287 3.26224 14.983L4.16824 14.586C4.58173 14.4055 5.03184 14.3245 5.48232 14.3497C5.9328 14.3749 6.37107 14.5055 6.76186 14.731C7.15265 14.9565 7.48503 15.2706 7.73226 15.648C7.97948 16.0255 8.13464 16.4557 8.18524 16.904L8.29324 17.888C9.18324 18.038 10.0922 18.038 10.9822 17.888L11.0902 16.904C11.1397 16.4547 11.2942 16.0234 11.5413 15.6449C11.7884 15.2665 12.1211 14.9514 12.5124 14.7254C12.9038 14.4993 13.3429 14.3685 13.7942 14.3436C14.2455 14.3187 14.6964 14.4004 15.1102 14.582L16.0142 14.978C16.5859 14.2834 17.0408 13.5006 17.3612 12.66L16.5632 12.072C16.1988 11.8045 15.9025 11.4549 15.6983 11.0516C15.4941 10.6483 15.3877 10.2026 15.3877 9.7505C15.3877 9.29843 15.4941 8.85271 15.6983 8.44941C15.9025 8.0461 16.1988 7.69654 16.5632 7.429L17.3592 6.842C17.0385 6.00168 16.5833 5.21912 16.0112 4.525L15.1152 4.918C14.701 5.09935 14.2499 5.18075 13.7984 5.15562C13.3469 5.13049 12.9076 4.99953 12.5161 4.77333C12.1245 4.54713 11.7916 4.23203 11.5443 3.85345C11.2969 3.47488 11.1421 3.04345 11.0922 2.594L10.9822 1.618C10.5414 1.54594 10.0959 1.50683 9.64924 1.501V1.5ZM9.63624 6C10.6308 6 11.5846 6.39509 12.2879 7.09835C12.9912 7.80161 13.3862 8.75544 13.3862 9.75C13.3862 10.7446 12.9912 11.6984 12.2879 12.4017C11.5846 13.1049 10.6308 13.5 9.63624 13.5C8.64168 13.5 7.68785 13.1049 6.98459 12.4017C6.28133 11.6984 5.88624 10.7446 5.88624 9.75C5.88624 8.75544 6.28133 7.80161 6.98459 7.09835C7.68785 6.39509 8.64168 6 9.63624 6ZM9.63624 7.5C9.03951 7.5 8.46721 7.73705 8.04525 8.15901C7.6233 8.58097 7.38624 9.15326 7.38624 9.75C7.38624 10.3467 7.6233 10.919 8.04525 11.341C8.46721 11.7629 9.03951 12 9.63624 12C10.233 12 10.8053 11.7629 11.2272 11.341C11.6492 10.919 11.8862 10.3467 11.8862 9.75C11.8862 9.15326 11.6492 8.58097 11.2272 8.15901C10.8053 7.73705 10.233 7.5 9.63624 7.5Z" fill="#333333"/>
</svg>
