<svg width="12" height="13" viewBox="0 0 12 13" fill="none" xmlns="http://www.w3.org/2000/svg">
<path d="M11.7342 1.02191C11.65 0.937532 11.55 0.870589 11.4399 0.824915C11.3298 0.77924 11.2117 0.755729 11.0925 0.755729C10.9733 0.755729 10.8553 0.77924 10.7452 0.824915C10.6351 0.870589 10.535 0.937532 10.4508 1.02191L6 5.46364L1.54916 1.01281C1.4649 0.92854 1.36486 0.861696 1.25476 0.816091C1.14466 0.770485 1.02665 0.747013 0.90748 0.747013C0.788308 0.747013 0.670302 0.770485 0.560202 0.816091C0.450101 0.861696 0.350062 0.92854 0.265794 1.01281C0.181527 1.09707 0.114683 1.19711 0.0690775 1.30722C0.0234724 1.41732 -8.879e-10 1.53532 0 1.65449C8.879e-10 1.77366 0.0234724 1.89167 0.0690775 2.00177C0.114683 2.11187 0.181527 2.21191 0.265794 2.29618L4.71663 6.74701L0.265794 11.1978C0.181527 11.2821 0.114683 11.3822 0.0690775 11.4923C0.0234724 11.6024 0 11.7204 0 11.8395C0 11.9587 0.0234724 12.0767 0.0690775 12.1868C0.114683 12.2969 0.181527 12.397 0.265794 12.4812C0.350062 12.5655 0.450101 12.6323 0.560202 12.6779C0.670302 12.7235 0.788308 12.747 0.90748 12.747C1.02665 12.747 1.14466 12.7235 1.25476 12.6779C1.36486 12.6323 1.4649 12.5655 1.54916 12.4812L6 8.03038L10.4508 12.4812C10.5351 12.5655 10.6351 12.6323 10.7452 12.6779C10.8553 12.7235 10.9733 12.747 11.0925 12.747C11.2117 12.747 11.3297 12.7235 11.4398 12.6779C11.5499 12.6323 11.6499 12.5655 11.7342 12.4812C11.8185 12.397 11.8853 12.2969 11.9309 12.1868C11.9765 12.0767 12 11.9587 12 11.8395C12 11.7204 11.9765 11.6024 11.9309 11.4923C11.8853 11.3822 11.8185 11.2821 11.7342 11.1978L7.28337 6.74701L11.7342 2.29618C12.0801 1.9503 12.0801 1.36778 11.7342 1.02191Z" fill="#DBD9D9"/>
</svg>
