<svg width="32" height="32" viewBox="0 0 32 32" fill="none" xmlns="http://www.w3.org/2000/svg">
<path d="M5.33333 4C4.97971 4 4.64057 4.14048 4.39052 4.39052C4.14048 4.64057 4 4.97971 4 5.33333V9.63733C4 10.1678 3.78929 10.6765 3.41421 11.0515C3.03914 11.4266 2.53043 11.6373 2 11.6373C1.46957 11.6373 0.960859 11.4266 0.585786 11.0515C0.210713 10.6765 1.1178e-08 10.1678 0 9.63733V5.33333C0 3.91885 0.561903 2.56229 1.5621 1.5621C2.56229 0.561903 3.91885 0 5.33333 0H9.63733C10.1678 1.1178e-08 10.6765 0.210713 11.0515 0.585786C11.4266 0.960859 11.6373 1.46957 11.6373 2C11.6373 2.53043 11.4266 3.03914 11.0515 3.41421C10.6765 3.78929 10.1678 4 9.63733 4H5.33333ZM20.3627 2C20.3627 1.46957 20.5734 0.960859 20.9485 0.585786C21.3235 0.210713 21.8322 0 22.3627 0H26.6667C28.0812 0 29.4377 0.561903 30.4379 1.5621C31.4381 2.56229 32 3.91885 32 5.33333V9.63733C32 10.1678 31.7893 10.6765 31.4142 11.0515C31.0391 11.4266 30.5304 11.6373 30 11.6373C29.4696 11.6373 28.9609 11.4266 28.5858 11.0515C28.2107 10.6765 28 10.1678 28 9.63733V5.33333C28 4.97971 27.8595 4.64057 27.6095 4.39052C27.3594 4.14048 27.0203 4 26.6667 4H22.3627C21.8322 4 21.3235 3.78929 20.9485 3.41421C20.5734 3.03914 20.3627 2.53043 20.3627 2ZM2 20.3627C2.53043 20.3627 3.03914 20.5734 3.41421 20.9485C3.78929 21.3235 4 21.8322 4 22.3627V26.6667C4 27.0203 4.14048 27.3594 4.39052 27.6095C4.64057 27.8595 4.97971 28 5.33333 28H9.63733C10.1678 28 10.6765 28.2107 11.0515 28.5858C11.4266 28.9609 11.6373 29.4696 11.6373 30C11.6373 30.5304 11.4266 31.0391 11.0515 31.4142C10.6765 31.7893 10.1678 32 9.63733 32H5.33333C3.91885 32 2.56229 31.4381 1.5621 30.4379C0.561903 29.4377 0 28.0812 0 26.6667V22.3627C0 21.8322 0.210713 21.3235 0.585786 20.9485C0.960859 20.5734 1.46957 20.3627 2 20.3627ZM30 20.3627C30.5304 20.3627 31.0391 20.5734 31.4142 20.9485C31.7893 21.3235 32 21.8322 32 22.3627V26.6667C32 28.0812 31.4381 29.4377 30.4379 30.4379C29.4377 31.4381 28.0812 32 26.6667 32H22.3627C21.8322 32 21.3235 31.7893 20.9485 31.4142C20.5734 31.0391 20.3627 30.5304 20.3627 30C20.3627 29.4696 20.5734 28.9609 20.9485 28.5858C21.3235 28.2107 21.8322 28 22.3627 28H26.6667C27.0203 28 27.3594 27.8595 27.6095 27.6095C27.8595 27.3594 28 27.0203 28 26.6667V22.3627C28 21.8322 28.2107 21.3235 28.5858 20.9485C28.9609 20.5734 29.4696 20.3627 30 20.3627Z" fill="white"/>
</svg>
