<svg width="16" height="16" viewBox="0 0 16 16" fill="none" xmlns="http://www.w3.org/2000/svg">
<path d="M15.3523 6.59356C15.4479 7.09564 15.5 7.62058 15.5 8.16838C15.5 12.4532 12.5735 15.5 8.15355 15.5C7.14839 15.5003 6.15301 15.3065 5.2243 14.9297C4.29559 14.5529 3.45175 14.0005 2.74099 13.304C2.03023 12.6075 1.46649 11.7806 1.08197 10.8705C0.69745 9.9604 0.499694 8.985 0.5 8C0.499694 7.015 0.69745 6.0396 1.08197 5.12952C1.46649 4.21944 2.03023 3.39253 2.74099 2.69603C3.45175 1.99953 4.29559 1.4471 5.2243 1.07029C6.15301 0.693488 7.14839 0.4997 8.15355 0.5C10.2201 0.5 11.9469 1.24512 13.2717 2.455L11.1142 4.56923V4.5639C10.3111 3.8142 9.29179 3.42945 8.15355 3.42945C5.62828 3.42945 3.57573 5.52006 3.57573 7.99543C3.57573 10.47 5.62828 12.5652 8.15355 12.5652C10.4448 12.5652 12.0044 11.2814 12.3248 9.51844H8.15355V6.59356H15.3531H15.3523Z" fill="black"/>
</svg>
