<svg width="36" height="36" viewBox="0 0 36 36" fill="none" xmlns="http://www.w3.org/2000/svg">
<path d="M33.2754 17.7539L18.7945 3.28354C18.6902 3.17907 18.5664 3.09619 18.4301 3.03964C18.2937 2.98309 18.1476 2.95398 18 2.95398C17.8524 2.95398 17.7062 2.98309 17.5699 3.03964C17.4336 3.09619 17.3097 3.17907 17.2054 3.28354L2.7246 17.7539C2.30272 18.1757 2.06366 18.7488 2.06366 19.3464C2.06366 20.5874 3.07264 21.5964 4.31366 21.5964H5.83944V31.9218C5.83944 32.5441 6.34217 33.0468 6.96444 33.0468H15.75V25.1718H19.6875V33.0468H29.0355C29.6578 33.0468 30.1605 32.5441 30.1605 31.9218V21.5964H31.6863C32.284 21.5964 32.857 21.3609 33.2789 20.9355C34.1543 20.0566 34.1543 18.6328 33.2754 17.7539Z" fill="#49474A"/>
</svg>
